<svg width="76" height="75" viewBox="0 0 76 75" fill="none" xmlns="http://www.w3.org/2000/svg">
<path d="M8.39474 2.17108C0.796053 6.11845 0.5 7.40134 0.5 37.0066C0.5 66.6119 0.796053 67.8948 8.39474 71.7434C12.5395 73.9145 13.7237 74.0132 38 74.0132C62.2763 74.0132 63.4605 73.9145 67.6053 71.8421C74.8092 68.0921 75.5 65.8224 75.5 44.1119C75.5 25.8553 75.5 25.5592 73.5263 26.6448C71.6513 27.6316 71.5526 28.7171 71.5526 44.0132C71.5526 62.2698 70.6645 66.0198 65.7303 68.4869C63.2632 69.7698 58.5263 70.0658 38 70.0658C10.2697 70.0658 8.39474 69.6711 5.82895 63.6513C3.75658 58.7171 3.85526 15.1974 5.92763 10.2632C8.09868 5.03292 11.75 3.9474 27.6382 3.9474C34.9408 3.9474 40.9605 3.75003 40.9605 3.55266C40.9605 3.35529 40.6645 2.46713 40.3684 1.57898C39.875 0.197395 37.7039 3.05176e-05 26.2566 3.05176e-05C14.2171 3.05176e-05 12.3421 0.197395 8.39474 2.17108Z" fill="#AEAEAE"/>
<path d="M44.1184 2.46711C44.9079 4.24343 45.9934 4.93422 47.9671 4.93422C49.7434 4.93422 51.421 5.82237 52.8026 7.59869C54.5789 9.86843 54.875 11.1513 54.3816 15.0987C53.5921 21.0197 54.6776 22.9934 59.8092 25.0658C64.546 26.9408 69.3816 26.3487 73.0329 23.4868C75.1053 21.9079 75.5 20.7237 75.5 16.4803C75.5 13.4211 74.8092 9.96711 73.7237 7.89474C71.5526 3.84869 64.8421 5.72205e-06 60.0066 5.72205e-06C57.046 5.72205e-06 56.8487 0.197374 57.8355 1.77632C58.5263 2.76316 60.8947 4.14474 63.2632 4.73685C68.1974 6.11843 70.4671 8.88158 71.2566 14.9013C71.75 18.2566 71.4539 19.3421 70.0724 20.4276C67.8026 22.0066 63.2632 22.1053 60.5 20.625C58.8224 19.7368 58.625 18.9474 59.1184 15.5921C60.4013 7.40132 54.2829 5.72205e-06 45.9934 5.72205e-06C43.1316 5.72205e-06 43.0329 0.09869 44.1184 2.46711Z" fill="#AEAEAE"/>
<path d="M17.375 11.5461C12.8355 13.8158 10.3684 18.1579 10.3684 23.8816C10.3684 29.7039 13.2303 33.2566 21.6184 37.796C26.75 40.5592 27.6382 41.546 29.6119 46.3816C31.2895 50.3289 31.5855 52.3026 30.8948 53.5855C28.2303 58.6184 18.8553 57.5329 17.4737 52.0066C16.7829 49.2434 16.1908 48.8487 13.0329 48.5526C9.48028 48.2566 9.38159 48.3553 9.38159 51.7105C9.38159 55.5592 12.8355 60.3947 17.375 62.6645C21.0263 64.6382 27.4408 64.5395 31.2895 62.5658C34.1513 61.0855 34.4474 61.0855 35.6316 62.6645C36.3224 63.5526 37.3092 64.1447 37.8026 63.75C38.2961 63.4539 40.1711 59.2105 41.9474 54.2763C43.8224 49.4408 45.5987 45.3947 45.9934 45.3947C46.2895 45.3947 48.1645 49.4408 50.0395 54.4737C51.9145 59.5066 53.8882 63.6513 54.4803 63.8487C55.0724 64.046 58.2303 56.9408 61.4869 48.1579C64.7434 39.2763 67.704 31.3816 68 30.5921C68.4934 29.4079 67.704 29.1118 64.3487 28.9145L60.1053 28.8158L57.1448 36.7105L54.1842 44.6053L50.829 35.921C48.6579 30.5921 46.7829 27.0395 45.7961 26.8421C44.6119 26.6447 43.329 28.8158 40.9605 35.1316L37.704 43.7171L36.0263 40.3618C33.7566 36.0197 31.5855 34.0461 25.0724 30.7895C16.9803 26.6447 15.5 20.9211 21.7171 17.8618C24.1842 16.6776 24.875 16.6776 27.0461 17.8618C28.4276 18.6513 30.0066 20.3289 30.5987 21.5132C31.3882 23.1908 32.375 23.6842 35.3355 23.6842C39.0855 23.6842 39.1842 23.5855 38.5921 20.9211C36.4211 11.9408 25.9605 7.30263 17.375 11.5461Z" fill="#AEAEAE"/>
<path d="M62.375 14.4079C60.796 15.9868 61.6842 18.75 63.7566 18.75C65.2368 18.75 65.7303 18.2566 65.4342 16.5789C65.1382 14.4079 63.5592 13.3224 62.375 14.4079Z" fill="#AEAEAE"/>
</svg>
